<?xml version="1.0" encoding="UTF-8"?><svg version="1.1" viewBox="0 0 16 16" xmlns="http://www.w3.org/2000/svg"><path fill="#000" d="M7.499 1C3.91 1 1 3.906 1 7.49c0 2.867 1.862 5.299 4.445 6.158 .325.059.555-.273.555-.523 0-.154.003-.334 0-.875 -1.808.392-2.375-.875-2.375-.875 -.296-.75-.656-.963-.656-.963 -.59-.403.044-.394.044-.394 .653.046.987.607.987.607 .5.875 1.63.791 2 .625 0-.397.044-.688.154-.873C4.111 10.02 2.997 8.84 3 7.208c.002-.964.335-1.715.876-2.269 -.237-.298-.397-1.314.085-1.939 1.206 0 1.927.873 1.927.873s.565-.248 1.61-.248c1.045 0 1.608.234 1.608.234s.723-.859 1.929-.859c.482.625.322 1.641.132 1.918 .517.543.833 1.292.833 2.29 0 1.631-1.11 2.81-3.148 3.168 .13.196.148.466.148.874 0 .867 0 1.662 0 1.875 0 .25.228.585.558.522C12.139 12.787 14 10.356 14 7.49 14 3.906 11.09 1 7.499 1Z"/></svg>