<?xml version="1.0" encoding="UTF-8"?><svg version="1.1" viewBox="0 0 50 50" xmlns="http://www.w3.org/2000/svg"><path fill="#000" d="M18 41.578c0 .891-.475 1.422-1.152 1.422 -.24 0-.506-.067-.786-.208L5.163 37.273C4.523 36.949 4 36.091 4 35.367V8.311c0-.713.38-1.137.922-1.137 .193 0 .406.054.629.167l.382.193c.002.001.003.001.005.002l12.01 6.081c.022.011.036.031.052.048v27.913ZM30.587 8.881l.732-1.204c.262-.43.745-.677 1.23-.677 .116 0 .231.017.344.046 .087.02.177.051.27.098l12.67 6.415c.001.001.001.002.002.002l.012.006c.008.004.009.014.016.02 .064.048.09.134.047.205L33.293 34.557l-1.288 2.12 -8.359-16.371 6.941-11.425ZM20 30.607V17.564l8.982 17.592 -8.079-4.091 -.903-.458Zm26 10.971c0 .838-.497 1.314-1.228 1.314 -.327 0-.701-.095-1.098-.296l-1.806-.915v0L33.79 37.59 46 17.495v24.083Z"/></svg>